<svg width="24" height="23" viewBox="0 0 24 23" fill="none" xmlns="http://www.w3.org/2000/svg">
<g id="post-twitter">
<path id="Shape" fill-rule="evenodd" clip-rule="evenodd" d="M21.6889 0H3.20003C1.92892 0 0.888916 1.035 0.888916 2.3V20.7C0.888916 21.965 1.92892 23 3.20003 23H21.6889C22.96 23 24 21.965 24 20.7V2.3C24 1.035 22.96 0 21.6889 0ZM19.0311 8.395C18.9156 13.685 15.5645 17.365 10.48 17.595C8.40003 17.71 6.89781 17.02 5.51114 16.215C7.01336 16.445 8.97781 15.87 10.0178 14.95C8.51558 14.835 7.59114 14.03 7.12892 12.765C7.59114 12.88 8.05336 12.765 8.40003 12.765C7.01336 12.305 6.08892 11.5 5.97336 9.66C6.32003 9.89 6.78225 10.005 7.24447 10.005C6.20447 9.43 5.51114 7.245 6.32003 5.865C7.82225 7.475 9.67114 8.855 12.6756 9.085C11.8667 5.865 16.2578 4.14 17.9911 6.325C18.8 6.21 19.3778 5.865 19.9556 5.635C19.7245 6.44 19.2622 6.9 18.6845 7.36C19.2622 7.245 19.84 7.13 20.3022 6.9C20.1867 7.475 19.6089 7.935 19.0311 8.395Z" fill="white"/>
</g>
</svg>
