<svg width="24" height="23" viewBox="0 0 24 23" fill="none" xmlns="http://www.w3.org/2000/svg">
<g id="post-facebook">
<path id="Shape" fill-rule="evenodd" clip-rule="evenodd" d="M20.8 0H2.31111C1.04 0 0 1.035 0 2.3V20.7C0 21.965 1.04 23 2.31111 23H20.8C22.0711 23 23.1111 21.965 23.1111 20.7V2.3C23.1111 1.035 22.0711 0 20.8 0ZM19.6444 2.3V5.75H17.3333C16.64 5.75 16.1778 6.21 16.1778 6.9V9.2H19.6444V12.65H16.1778V20.7H12.7111V12.65H10.4V9.2H12.7111V6.325C12.7111 4.14 14.56 2.3 16.7556 2.3H19.6444Z" fill="white"/>
</g>
</svg>
